<svg xmlns="http://www.w3.org/2000/svg" viewBox="0 0 24 24" class="design-iconfont">
  <g transform="translate(5 3)" fill="none" fill-rule="evenodd">
    <path d="M8.99878734,0 L0.75,0 C0.335786438,0 0,0.335786438 0,0.75 L0,17.2544881 C0,17.6687017 0.335786438,18.0044881 0.75,18.0044881 L14.25,18.0044881 C14.6642136,18.0044881 15,17.6687017 15,17.2544881 L15,6 C15,5.80105056 14.920953,5.6102527 14.7802544,5.46959427 L9.52904177,0.21959427 C9.38839564,0.0789882614 9.19766263,0 8.99878734,0 Z M8.688,1.5 L13.5,6.311 L13.5,16.504 L1.5,16.504 L1.5,1.5 L8.688,1.5 Z" fill="#8393A7" fill-rule="nonzero"/>
    <rect fill="#8393A7" x="2.5" y="5" width="5" height="1.5" rx=".75"/>
    <rect fill="#8393A7" x="7.5" y="13.5" width="5" height="1.5" rx=".75"/>
    <rect fill="#8393A7" x="2.5" y="5" width="1.5" height="5" rx=".75"/>
    <rect fill="#8393A7" x="11" y="9.75" width="1.5" height="5" rx=".75"/>
    <path d="M8.65207233,0 L15,6.5 L9.65207233,6.5 C9.09978758,6.5 8.65207233,6.05228475 8.65207233,5.5 L8.65207233,0 L8.65207233,0 Z" fill="#8393A7"/>
    <path stroke="#8393A7" stroke-width="1.5" stroke-linecap="round" d="M3.25 5.75L6.5 9"/>
    <path stroke="#8393A7" stroke-width="1.5" stroke-linecap="round" d="M8.25 10.75L11.5 14"/>
  </g>
</svg>
