<svg xmlns="http://www.w3.org/2000/svg" viewBox="0 0 24 24" class="design-iconfont">
  <path d="M14.7804958,7.20579777 L14.7869443,7.21191311 C15.0606214,7.47145026 15.0720841,7.9037058 14.812547,8.17738289 C14.8042405,8.18614188 14.7957033,8.19467909 14.7869443,8.20298553 L10.781,12 L14.7864181,15.7986473 C15.0600951,16.0581845 15.0715578,16.49044 14.8120207,16.7641171 C14.8037142,16.7728761 14.795177,16.7814133 14.7864181,16.7897198 L14.7799695,16.7958351 C14.490623,17.0702321 14.0371457,17.0702321 13.7477991,16.7958351 L9.22823845,12.5117222 C9.22537678,12.5090904 9.22253051,12.5064323 9.21969994,12.503748 L9.21325143,12.4976327 C9.10378059,12.3938178 9.03626406,12.262368 9.0112641,12.1244863 C8.9732379,11.9151036 9.03140024,11.6938091 9.18712253,11.5296028 C9.19542897,11.5208438 9.20396618,11.5123066 9.21272516,11.5040002 L9.21917368,11.4978848 L9.243,11.477 L13.7483254,7.20579777 C14.037672,6.93140074 14.4911493,6.93140074 14.7804958,7.20579777 Z" fill="#55627B" transform="rotate(90 12.000787 12)" fill-rule="evenodd"/>
</svg>
