<svg xmlns="http://www.w3.org/2000/svg" viewBox="0 0 40 40" class="design-iconfont">
  <g fill-rule="nonzero" fill="none">
    <path d="M20,2 C29.9411255,2 38,10.0588745 38,20 C38,29.9411255 29.9411255,38 20,38 C10.0588745,38 2,29.9411255 2,20 C2,10.0588745 10.0588745,2 20,2 Z" fill="#FFF"/>
    <path d="M20,18.0028235 L14.4100387,12.413502 L14.2792306,12.2989098 C13.6933282,11.8625854 12.9099655,11.9170271 12.4134963,12.4134963 L12.2768033,12.5718369 C11.8667243,13.1245173 11.9122887,13.9088255 12.4134963,14.4100331 L18.0028235,20 L12.413502,25.5899613 L12.2989098,25.7207694 C11.8625854,26.3066718 11.9170271,27.0900345 12.4134963,27.5865037 L12.5718369,27.7231967 C13.1245173,28.1332757 13.9088255,28.0877113 14.4100331,27.5865037 L20,21.9952941 L25.5899613,27.586498 L25.7207694,27.7010902 C26.3066718,28.1374146 27.0900345,28.0829729 27.5865037,27.5865037 L27.7231967,27.4281631 C28.1332757,26.8754827 28.0877113,26.0911745 27.5865037,25.5899669 L21.9952941,20 L27.586498,14.4100387 L27.7010902,14.2792306 C28.1374146,13.6933282 28.0829729,12.9099655 27.5865037,12.4134963 C27.0351753,11.8621679 26.1412953,11.8621679 25.5899669,12.4134963 L20,18.0028235 Z" fill="#909399"/>
  </g>
</svg>
