<svg xmlns="http://www.w3.org/2000/svg" viewBox="0 0 24 24" class="design-iconfont">
  <path d="M12,2 C17.5228475,2 22,6.4771525 22,12 C22,17.5228475 17.5228475,22 12,22 C6.4771525,22 2,17.5228475 2,12 C2,6.4771525 6.4771525,2 12,2 Z M12,3.5 C7.30557963,3.5 3.5,7.30557963 3.5,12 C3.5,16.6944204 7.30557963,20.5 12,20.5 C16.6944204,20.5 20.5,16.6944204 20.5,12 C20.5,7.30557963 16.6944204,3.5 12,3.5 Z M12,7 C12.3796958,7 12.693491,7.28215388 12.7431534,7.64822944 L12.75,7.75 L12.75,14.328 L14.4463735,12.4914932 C14.7272141,12.187024 15.2017014,12.1678693 15.5061705,12.4487099 C15.7829606,12.7040195 15.8239537,13.1193677 15.6181198,13.4215277 L15.5489538,13.5085068 L12.5511726,16.7585068 C12.278985,17.053595 11.8290834,17.0782603 11.5271902,16.8324458 L11.44877,16.7586993 L8.44888749,13.5086993 C8.16794061,13.2043283 8.18692964,12.7298344 8.49130068,12.4488875 C8.76800162,12.1934812 9.18529999,12.1859559 9.46996518,12.4153769 L9.55111251,12.4913007 L11.25,14.332 L11.25,7.75 C11.25,7.33578644 11.5857864,7 12,7 Z" fill="#3D77FF" fill-rule="evenodd"/>
</svg>
