<svg xmlns="http://www.w3.org/2000/svg" viewBox="0 0 20 20" class="design-iconfont">
  <g fill="none" fill-rule="evenodd">
    <path d="M12.35,13 C12.7089851,13 13,13.2910149 13,13.65 C13,14.0089851 12.7089851,14.3 12.35,14.3 L7.65,14.3 C7.29101491,14.3 7,14.0089851 7,13.65 C7,13.2910149 7.29101491,13 7.65,13 L12.35,13 Z M10.35,10.5 C10.7089851,10.5 11,10.7910149 11,11.15 C11,11.5089851 10.7089851,11.8 10.35,11.8 L7.65,11.8 C7.29101491,11.8 7,11.5089851 7,11.15 C7,10.7910149 7.29101491,10.5 7.65,10.5 L10.35,10.5 Z M12.35,8 C12.7089851,8 13,8.29101491 13,8.65 C13,9.00898509 12.7089851,9.3 12.35,9.3 L7.65,9.3 C7.29101491,9.3 7,9.00898509 7,8.65 C7,8.29101491 7.29101491,8 7.65,8 L12.35,8 Z" fill="#333"/>
    <path d="M6,6 L9.33621665,3.03910772 C9.71492102,2.7030076 10.285079,2.7030076 10.6637834,3.03910772 L14,6 L14,6" stroke="#333" stroke-width="1.5" stroke-linecap="round" stroke-linejoin="round"/>
    <path d="M15.5,6.25 C15.845178,6.25 16.157678,6.38991102 16.3838835,6.61611652 C16.610089,6.84232203 16.75,7.15482203 16.75,7.5 L16.75,7.5 L16.75,15 C16.75,15.345178 16.610089,15.657678 16.3838835,15.8838835 C16.157678,16.110089 15.845178,16.25 15.5,16.25 L15.5,16.25 L4.5,16.25 C4.15482203,16.25 3.84232203,16.110089 3.61611652,15.8838835 C3.38991102,15.657678 3.25,15.345178 3.25,15 L3.25,15 L3.25,7.5 C3.25,7.15482203 3.38991102,6.84232203 3.61611652,6.61611652 C3.84232203,6.38991102 4.15482203,6.25 4.5,6.25 L4.5,6.25 Z" stroke="#333" stroke-width="1.5"/>
  </g>
</svg>
