<svg xmlns="http://www.w3.org/2000/svg" viewBox="0 0 16 15" class="design-iconfont">
  <path d="M12.1904921,0 C12.9340516,0 13.5384554,0.574478218 13.6069888,1.3015349 L13.6134623,1.43954305 L13.6134623,4.78958453 C13.6134623,5.20379809 13.2776758,5.53958453 12.8634623,5.53958453 C12.4837665,5.53958453 12.1699713,5.25743065 12.1203089,4.89135508 L12.1134623,4.78958453 L12.113,1.5 L1.5,1.5 L1.5,12.756 L5.5088746,12.7565464 C5.88857036,12.7565464 6.20236556,13.0387003 6.25202798,13.4047759 L6.2588746,13.5065464 C6.2588746,13.8862422 5.97672072,14.2000374 5.61064515,14.2496998 L5.5088746,14.2565464 L1.42297013,14.2565464 C0.679417016,14.2565464 0.0750076415,13.682074 0.00647350449,12.9550126 L0,12.8170034 L0,1.43954305 C0,0.69506388 0.560672463,0.0767911033 1.28528163,0.00662918212 L1.42297013,0 L12.1904921,0 Z M14.5926422,7.57676567 C14.5984493,7.58244563 14.6041867,7.58819633 14.6098533,7.59401647 C15.0063749,8.00128523 15.0056268,8.6505037 14.6081675,9.05685748 L10.3722423,13.3875761 C10.3563091,13.4038659 10.336501,13.4158439 10.3146742,13.4223875 L8.56209594,13.9478079 C8.49089272,13.9691545 8.41586624,13.9287378 8.39451962,13.8575345 C8.38710429,13.8328002 8.38696052,13.8064547 8.39410548,13.7816409 L8.91271994,11.9805361 C8.91888353,11.9591304 8.93026352,11.9395892 8.94583934,11.9236648 L13.1823267,7.5923714 C13.5674651,7.19861412 14.1988849,7.1916272 14.5926422,7.57676567 Z M9.56886821,4.09216175 L9.57564151,4.19771525 L9.57564151,9.71405965 C9.57564151,10.1282732 9.23985507,10.4640597 8.82564151,10.4640597 C8.44594575,10.4640597 8.13215055,10.1819058 8.08248813,9.81583021 L8.07564151,9.71405965 L8.075,6.492 L5.39301657,10.1570473 C4.98610021,10.7129637 4.12926071,10.4673257 4.04459405,9.81961315 L4.03782076,9.71405965 L4.03782076,4.19771525 C4.03782076,3.78350169 4.37360719,3.44771525 4.78782076,3.44771525 C5.16751652,3.44771525 5.48131172,3.72986913 5.53097414,4.09594469 L5.53782076,4.19771525 L5.537,7.42 L8.2204457,3.75472764 C8.62736205,3.19881124 9.48420156,3.44444922 9.56886821,4.09216175 Z" transform="translate(.25 .25)" fill="#333" fill-rule="nonzero"/>
</svg>
