<svg xmlns="http://www.w3.org/2000/svg" viewBox="0 0 32 32" class="design-iconfont">
  <g fill="none" fill-rule="evenodd">
    <rect fill="#0FC17E" width="32" height="32" rx="4"/>
    <path d="M19,9 C20.1045695,9 21,9.8954305 21,11 L21,21 C21,22.1045695 20.1045695,23 19,23 L8,23 C6.8954305,23 6,22.1045695 6,21 L6,11 C6,9.8954305 6.8954305,9 8,9 L19,9 Z M27.9472136,11.5854102 C27.9819275,11.6548379 28,11.7313944 28,11.809017 L28,20.190983 C28,20.4671254 27.7761424,20.690983 27.5,20.690983 C27.4223775,20.690983 27.3458209,20.6729105 27.2763932,20.6381966 L23,18.5 L23,13.5 L27.2763932,11.3618034 C27.5233825,11.2383088 27.823719,11.3384209 27.9472136,11.5854102 Z M11.75,13.0557777 C11.3357864,13.0557777 11,13.3915642 11,13.8057777 L11,13.8057777 L11,18.1942223 C11,18.3270132 11.0352563,18.4574235 11.1021658,18.5721255 C11.310876,18.9299145 11.7701143,19.0507666 12.1279033,18.8420564 L12.1279033,18.8420564 L15.8894271,16.6478342 C16.0011799,16.5826451 16.0941689,16.489656 16.159358,16.3779033 C16.3680682,16.0201143 16.2472161,15.560876 15.8894271,15.3521658 L15.8894271,15.3521658 L12.1279033,13.1579436 C12.0132012,13.091034 11.882791,13.0557777 11.75,13.0557777 Z" fill="#FFF"/>
  </g>
</svg>
